<?xml version="1.0" encoding="UTF-8" standalone="no"?>
<!DOCTYPE svg PUBLIC "-//W3C//DTD SVG 1.1//EN" "http://www.w3.org/Graphics/SVG/1.1/DTD/svg11.dtd">
<svg version="1.1" xmlns="http://www.w3.org/2000/svg" xmlns:xlink="http://www.w3.org/1999/xlink" preserveAspectRatio="xMidYMid meet" viewBox="0 0 1600 120" width="1600" height="120">
<defs>
<path d="M0 47.93C0 49.97 0 60.13 0 78.44C960 78.44 1493.33 78.44 1600 78.44C1600 78.44 1600 59.42 1600 47.93C1289 47.93 1190.1 -0.1 789 0C389 0 289 47.93 0 47.93Z" id="cQsigkT8T"></path>
<path d="M0 47.93C0 49.97 0 60.13 0 78.44C960 78.44 1493.33 78.44 1600 78.44C1600 78.44 1600 59.42 1600 47.93C1289 47.93 1190.1 -0.1 789 0C389 0 289 47.93 0 47.93Z" id="b1vDELPpeF"></path>
<path d="M0 75.44L1600 75.44L1600 120L0 120L0 75.44Z" id="dhvBsnFK"></path></defs>
<g><g><g>
<use xlink:href="#cQsigkT8T" opacity="1" fill="#2E5670" fill-opacity="1"></use><g>
<use xlink:href="#cQsigkT8T" opacity="1" fill-opacity="0" stroke="#000000" stroke-width="1" stroke-opacity="0"></use></g></g>
<g><use xlink:href="#b1vDELPpeF" opacity="1" fill="#000000" fill-opacity="0"></use><g><use xlink:href="#b1vDELPpeF" opacity="1" fill-opacity="0" stroke="#000000" stroke-width="1" stroke-opacity="0"></use></g></g><g>
<use xlink:href="#dhvBsnFK" opacity="1" fill="#2E5670" fill-opacity="1"></use></g></g></g></svg>